A pesar que es de 720x400 se ve bien en una TV HD de 42" Solo prueben :)

Peso: 500 MB (524.459.247 bytes)

Duracion: 01:37:55

Video: MPEG4 Video (H264)

Formato: MP4

Resolución: 720x400 25fps 632kbps

Audio: AAC 48000Hz stereo 79kbps

Idioma: Español (españa)

Director: Yoshiaki Kawajiri

Informcion Completa:

General
Complete name                  : Vampire Hunter D, Bloodlust.mp4
Format                         : MPEG-4
Format profile                 : Base Media
Codec ID                       : isom
File size                      : 500 MiB
Duration                       : 1h 37mn
Overall bit rate mode          : Variable
Overall bit rate               : 714 Kbps
Encoded date                   : UTC 2007-05-17 23:08:31
Tagged date                    : UTC 2007-05-17 23:08:31

Video
ID                             : 1
Format                         : AVC
Format/Info                    : Advanced Video Codec
Format profile                 : High@L5.1
Format settings, CABAC         : Yes
Format settings, ReFrames      : 16 frames
Codec ID                       : avc1
Codec ID/Info                  : Advanced Video Coding
Duration                       : 1h 37mn
Bit rate                       : 632 Kbps
Maximum bit rate               : 2 691 Kbps
Width                          : 720 pixels
Height                         : 400 pixels
Display aspect ratio           : 16:9
Frame rate mode                : Constant
Frame rate                     : 25.000 fps
Color space                    : YUV
Chroma subsampling             : 4:2:0
Bit depth                      : 8 bits
Scan type                      : Progressive
Bits/(Pixel*Frame)             : 0.088
Stream size                    : 443 MiB (89%)
Title                          : Video
Writing library                : x264 core 54 svn-654

Audio
ID                             : 2
Format                         : AAC
Format/Info                    : Advanced Audio Codec
Format profile                 : HE-AAC / LC
Codec ID                       : 40
Duration                       : 1h 37mn
Bit rate mode                  : Variable
Bit rate                       : 79.0 Kbps
Maximum bit rate               : 99.1 Kbps
Channel(s)                     : 2 channels
Channel positions              : Front: L R
Sampling rate                  : 48.0 KHz / 24.0 KHz
Compression mode               : Lossy
Stream size                    : 55.4 MiB (11%)
Title                          : Spanish
Language                       : Spanish
Encoded date                   : UTC 2007-05-17 23:09:25
Tagged date                    : UTC 2007-05-17 23:09:29
